# xmcd
#
# Track frame offsets: 
#        150
#        7106
#        28458
#        48290
#        72702
#        95710
#        127696
#        155805
#        180600
#        194603
#        217978
#        241130
#        260124
#        282573
#
# Disc length: 4007 seconds
#
# Revision: 0
# Processed by: cddbd v1.5.2PL0 Copyright (c) Steve Scherf et al.
# Submitted via: ExactAudioCopy v0.99pb3
#
DISCID=db0fa50e
DTITLE=Wojtek Klich - Rockowe oplateczki
DYEAR=2004
DGENRE=Blues
TTITLE0=Dzisiaj w teatrze
TTITLE1=Wsrod nocnej ciszy
TTITLE2=Bracia patrzcie jeno
TTITLE3=Ubogi zlobie
TTITLE4=Do szopy
TTITLE5=W zlobie lezy
TTITLE6=Lulajze Jezuniu
TTITLE7=Gdy sie Chrystus rodzi
TTITLE8=Przybiezeli do Betlejem
TTITLE9=Medrcy swiata
TTITLE10=A coz z ta Dziecina
TTITLE11=Aniol pasterzom mowil
TTITLE12=Gdy sliczna Panna
TTITLE13=Jezus malusienki
EXTD=
EXTT0=
EXTT1=
EXTT2=
EXTT3=
EXTT4=
EXTT5=
EXTT6=
EXTT7=
EXTT8=
EXTT9=
EXTT10=
EXTT11=
EXTT12=
EXTT13=
PLAYORDER=
